{
  "accessors": [
    {
      "bufferView": 2,
      "componentType": 5126,
      "count": 4612,
      "max": [
        0.968418300151825,
        1.0793333053588867,
        0.9953398704528809
      ],
      "min": [
        -0.9684179425239563,
        -1.0292174816131592,
        -0.9996132254600525
      ],
      "type": "VEC3"
    },
    {
      "bufferView": 2,
      "byteOffset": 55344,
      "componentType": 5126,
      "count": 4612,
      "max": [
        1.0,
        1.0,
        1.0
      ],
      "min": [
        -1.0,
        -1.0,
        -1.0
      ],
      "type": "VEC3"
    },
    {
      "bufferView": 1,
      "componentType": 5126,
      "count": 4612,
      "max": [
        0.9971076250076294,
        0.49792206287384033
      ],
      "min": [
        0.005942852236330509,
        0.003438936546444893
      ],
      "type": "VEC2"
    },
    {
      "bufferView": 1,
      "byteOffset": 36896,
      "componentType": 5126,
      "count": 4612,
      "max": [
        0.9971076250076294,
        0.49792206287384033
      ],
      "min": [
        0.005942852236330509,
        0.003438936546444893
      ],
      "type": "VEC2"
    },
    {
      "bufferView": 1,
      "byteOffset": 73792,
      "componentType": 5126,
      "count": 4612,
      "max": [
        0.9971076250076294,
        0.49792206287384033
      ],
      "min": [
        0.005942852236330509,
        0.003438936546444893
      ],
      "type": "VEC2"
    },
    {
      "bufferView": 0,
      "componentType": 5125,
      "count": 11412,
      "type": "SCALAR"
    },
    {
      "bufferView": 2,
      "byteOffset": 110688,
      "componentType": 5126,
      "count": 1490,
      "max": [
        0.3820265233516693,
        -0.30443114042282104,
        -0.5471137762069702
      ],
      "min": [
        -0.3820265233516693,
        -0.9430223107337952,
        -0.8554732799530029
      ],
      "type": "VEC3"
    },
    {
      "bufferView": 2,
      "byteOffset": 128568,
      "componentType": 5126,
      "count": 1490,
      "max": [
        1.0,
        1.0,
        1.0
      ],
      "min": [
        -1.0,
        -1.0,
        -1.0
      ],
      "type": "VEC3"
    },
    {
      "bufferView": 1,
      "byteOffset": 110688,
      "componentType": 5126,
      "count": 1490,
      "max": [
        0.7946821451187134,
        0.1173182874917984
      ],
      "min": [
        0.7131454944610596,
        0.03136551380157471
      ],
      "type": "VEC2"
    },
    {
      "bufferView": 1,
      "byteOffset": 122608,
      "componentType": 5126,
      "count": 1490,
      "max": [
        0.7946821451187134,
        0.1173182874917984
      ],
      "min": [
        0.7131454944610596,
        0.03136551380157471
      ],
      "type": "VEC2"
    },
    {
      "bufferView": 1,
      "byteOffset": 134528,
      "componentType": 5126,
      "count": 1490,
      "max": [
        0.7946821451187134,
        0.1173182874917984
      ],
      "min": [
        0.7131454944610596,
        0.03136551380157471
      ],
      "type": "VEC2"
    },
    {
      "bufferView": 0,
      "byteOffset": 45648,
      "componentType": 5125,
      "count": 4710,
      "type": "SCALAR"
    },
    {
      "bufferView": 2,
      "byteOffset": 146448,
      "componentType": 5126,
      "count": 7104,
      "max": [
        2.2685155868530273,
        0.6237963438034058,
        0.5701540112495422
      ],
      "min": [
        -2.2685155868530273,
        -0.6237960457801819,
        -0.5701542496681213
      ],
      "type": "VEC3"
    },
    {
      "bufferView": 2,
      "byteOffset": 231696,
      "componentType": 5126,
      "count": 7104,
      "max": [
        1.0,
        1.0,
        0.9993325471878052
      ],
      "min": [
        -1.0,
        -1.0,
        -0.9993325471878052
      ],
      "type": "VEC3"
    },
    {
      "bufferView": 1,
      "byteOffset": 146448,
      "componentType": 5126,
      "count": 7104,
      "max": [
        0.8828321695327759,
        0.12338414788246155
      ],
      "min": [
        0.813199520111084,
        0.07051470875740051
      ],
      "type": "VEC2"
    },
    {
      "bufferView": 1,
      "byteOffset": 203280,
      "componentType": 5126,
      "count": 7104,
      "max": [
        0.8828321695327759,
        0.12338414788246155
      ],
      "min": [
        0.813199520111084,
        0.07051470875740051
      ],
      "type": "VEC2"
    },
    {
      "bufferView": 1,
      "byteOffset": 260112,
      "componentType": 5126,
      "count": 7104,
      "max": [
        0.8828321695327759,
        0.12338414788246155
      ],
      "min": [
        0.813199520111084,
        0.07051470875740051
      ],
      "type": "VEC2"
    },
    {
      "bufferView": 0,
      "byteOffset": 64488,
      "componentType": 5125,
      "count": 17208,
      "type": "SCALAR"
    },
    {
      "bufferView": 2,
      "byteOffset": 316944,
      "componentType": 5126,
      "count": 736,
      "max": [
        2.1749064922332764,
        0.3170139193534851,
        0.3517199754714966
      ],
      "min": [
        -2.1749064922332764,
        -0.3170139193534851,
        -0.3517199754714966
      ],
      "type": "VEC3"
    },
    {
      "bufferView": 2,
      "byteOffset": 325776,
      "componentType": 5126,
      "count": 736,
      "max": [
        1.0,
        0.9934377670288086,
        0.9934377670288086
      ],
      "min": [
        -1.0,
        -0.9934377670288086,
        -0.9934377670288086
      ],
      "type": "VEC3"
    },
    {
      "bufferView": 1,
      "byteOffset": 316944,
      "componentType": 5126,
      "count": 736,
      "max": [
        0.862183690071106,
        0.09444251656532288
      ],
      "min": [
        0.8147900104522705,
        0.07364490628242493
      ],
      "type": "VEC2"
    },
    {
      "bufferView": 1,
      "byteOffset": 322832,
      "componentType": 5126,
      "count": 736,
      "max": [
        0.862183690071106,
        0.09444251656532288
      ],
      "min": [
        0.8147900104522705,
        0.07364490628242493
      ],
      "type": "VEC2"
    },
    {
      "bufferView": 1,
      "byteOffset": 328720,
      "componentType": 5126,
      "count": 736,
      "max": [
        0.862183690071106,
        0.09444251656532288
      ],
      "min": [
        0.8147900104522705,
        0.07364490628242493
      ],
      "type": "VEC2"
    },
    {
      "bufferView": 0,
      "byteOffset": 133320,
      "componentType": 5125,
      "count": 1104,
      "type": "SCALAR"
    },
    {
      "bufferView": 2,
      "byteOffset": 334608,
      "componentType": 5126,
      "count": 5884,
      "max": [
        2.5076615810394287,
        3.0405735969543457,
        0.5597364902496338
      ],
      "min": [
        -2.5076615810394287,
        -1.666810154914856,
        -0.5073009133338928
      ],
      "type": "VEC3"
    },
    {
      "bufferView": 2,
      "byteOffset": 405216,
      "componentType": 5126,
      "count": 5884,
      "max": [
        1.0,
        1.0,
        1.0
      ],
      "min": [
        -1.0,
        -1.0,
        -1.0
      ],
      "type": "VEC3"
    },
    {
      "bufferView": 1,
      "byteOffset": 334608,
      "componentType": 5126,
      "count": 5884,
      "max": [
        0.9474630951881409,
        0.47880592942237854
      ],
      "min": [
        0.4458077847957611,
        0.06839445233345032
      ],
      "type": "VEC2"
    },
    {
      "bufferView": 1,
      "byteOffset": 381680,
      "componentType": 5126,
      "count": 5884,
      "max": [
        0.9474630951881409,
        0.47880592942237854
      ],
      "min": [
        0.4458077847957611,
        0.06839445233345032
      ],
      "type": "VEC2"
    },
    {
      "bufferView": 1,
      "byteOffset": 428752,
      "componentType": 5126,
      "count": 5884,
      "max": [
        0.9474630951881409,
        0.47880592942237854
      ],
      "min": [
        0.4458077847957611,
        0.06839445233345032
      ],
      "type": "VEC2"
    },
    {
      "bufferView": 0,
      "byteOffset": 137736,
      "componentType": 5125,
      "count": 15408,
      "type": "SCALAR"
    },
    {
      "bufferView": 2,
      "byteOffset": 475824,
      "componentType": 5126,
      "count": 1104,
      "max": [
        2.5003175735473633,
        0.21766939759254456,
        0.281668096780777
      ],
      "min": [
        -2.5003175735473633,
        -0.21687257289886475,
        -0.281668096780777
      ],
      "type": "VEC3"
    },
    {
      "bufferView": 2,
      "byteOffset": 489072,
      "componentType": 5126,
      "count": 1104,
      "max": [
        1.0,
        1.0,
        1.0
      ],
      "min": [
        -1.0,
        -1.0,
        -1.0
      ],
      "type": "VEC3"
    },
    {
      "bufferView": 1,
      "byteOffset": 475824,
      "componentType": 5126,
      "count": 1104,
      "max": [
        0.8221540451049805,
        0.12465307116508484
      ],
      "min": [
        0.7737714648246765,
        0.001079912530258298
      ],
      "type": "VEC2"
    },
    {
      "bufferView": 1,
      "byteOffset": 484656,
      "componentType": 5126,
      "count": 1104,
      "max": [
        0.8221540451049805,
        0.12465307116508484
      ],
      "min": [
        0.7737714648246765,
        0.001079912530258298
      ],
      "type": "VEC2"
    },
    {
      "bufferView": 1,
      "byteOffset": 493488,
      "componentType": 5126,
      "count": 1104,
      "max": [
        0.8221540451049805,
        0.12465307116508484
      ],
      "min": [
        0.7737714648246765,
        0.001079912530258298
      ],
      "type": "VEC2"
    },
    {
      "bufferView": 0,
      "byteOffset": 199368,
      "componentType": 5125,
      "count": 2484,
      "type": "SCALAR"
    },
    {
      "bufferView": 2,
      "byteOffset": 502320,
      "componentType": 5126,
      "count": 332,
      "max": [
        2.5075933933258057,
        0.6357949376106262,
        0.6545981168746948
      ],
      "min": [
        -2.5075933933258057,
        -0.6395221948623657,
        -0.6545526385307312
      ],
      "type": "VEC3"
    },
    {
      "bufferView": 2,
      "byteOffset": 506304,
      "componentType": 5126,
      "count": 332,
      "max": [
        1.0,
        0.8375377058982849,
        0.978711724281311
      ],
      "min": [
        -1.0,
        -0.8359156250953674,
        -0.9787082076072693
      ],
      "type": "VEC3"
    },
    {
      "bufferView": 1,
      "byteOffset": 502320,
      "componentType": 5126,
      "count": 332,
      "max": [
        0.9943432807922363,
        0.9947343468666077
      ],
      "min": [
        0.10254731774330139,
        0.004695393610745668
      ],
      "type": "VEC2"
    },
    {
      "bufferView": 1,
      "byteOffset": 504976,
      "componentType": 5126,
      "count": 332,
      "max": [
        0.9943432807922363,
        0.9947343468666077
      ],
      "min": [
        0.10254731774330139,
        0.004695393610745668
      ],
      "type": "VEC2"
    },
    {
      "bufferView": 1,
      "byteOffset": 507632,
      "componentType": 5126,
      "count": 332,
      "max": [
        0.9943432807922363,
        0.9947343468666077
      ],
      "min": [
        0.10254731774330139,
        0.004695393610745668
      ],
      "type": "VEC2"
    },
    {
      "bufferView": 0,
      "byteOffset": 209304,
      "componentType": 5125,
      "count": 504,
      "type": "SCALAR"
    },
    {
      "bufferView": 2,
      "byteOffset": 510288,
      "componentType": 5126,
      "count": 2592,
      "max": [
        2.662034034729004,
        4.391163349151611,
        1.8530418872833252
      ],
      "min": [
        -2.662034034729004,
        -1.9327783584594727,
        -1.8530418872833252
      ],
      "type": "VEC3"
    },
    {
      "bufferView": 2,
      "byteOffset": 541392,
      "componentType": 5126,
      "count": 2592,
      "max": [
        1.0,
        1.0,
        1.0
      ],
      "min": [
        -1.0,
        -1.0,
        -1.0
      ],
      "type": "VEC3"
    },
    {
      "bufferView": 1,
      "byteOffset": 510288,
      "componentType": 5126,
      "count": 2592,
      "max": [
        0.991271436214447,
        0.9852049350738525
      ],
      "min": [
        0.24946708977222443,
        0.004556531086564064
      ],
      "type": "VEC2"
    },
    {
      "bufferView": 1,
      "byteOffset": 531024,
      "componentType": 5126,
      "count": 2592,
      "max": [
        0.991271436214447,
        0.9852049350738525
      ],
      "min": [
        0.24946708977222443,
        0.004556531086564064
      ],
      "type": "VEC2"
    },
    {
      "bufferView": 1,
      "byteOffset": 551760,
      "componentType": 5126,
      "count": 2592,
      "max": [
        0.991271436214447,
        0.9852049350738525
      ],
      "min": [
        0.24946708977222443,
        0.004556531086564064
      ],
      "type": "VEC2"
    },
    {
      "bufferView": 0,
      "byteOffset": 211320,
      "componentType": 5125,
      "count": 4032,
      "type": "SCALAR"
    },
    {
      "bufferView": 2,
      "byteOffset": 572496,
      "componentType": 5126,
      "count": 1002,
      "max": [
        2.4976093769073486,
        3.1138854026794434,
        0.2569151222705841
      ],
      "min": [
        -2.4976093769073486,
        0.08283364772796631,
        -0.2569151222705841
      ],
      "type": "VEC3"
    },
    {
      "bufferView": 2,
      "byteOffset": 584520,
      "componentType": 5126,
      "count": 1002,
      "max": [
        1.0,
        1.0,
        1.0
      ],
      "min": [
        -1.0,
        -0.9724521040916443,
        -1.0
      ],
      "type": "VEC3"
    },
    {
      "bufferView": 1,
      "byteOffset": 572496,
      "componentType": 5126,
      "count": 1002,
      "max": [
        0.2530715763568878,
        0.9921450018882751
      ],
      "min": [
        0.005325185600668192,
        0.6745993494987488
      ],
      "type": "VEC2"
    },
    {
      "bufferView": 1,
      "byteOffset": 580512,
      "componentType": 5126,
      "count": 1002,
      "max": [
        0.2530715763568878,
        0.9921450018882751
      ],
      "min": [
        0.005325185600668192,
        0.6745993494987488
      ],
      "type": "VEC2"
    },
    {
      "bufferView": 1,
      "byteOffset": 588528,
      "componentType": 5126,
      "count": 1002,
      "max": [
        0.2530715763568878,
        0.9921450018882751
      ],
      "min": [
        0.005325185600668192,
        0.6745993494987488
      ],
      "type": "VEC2"
    },
    {
      "bufferView": 0,
      "byteOffset": 227448,
      "componentType": 5125,
      "count": 4152,
      "type": "SCALAR"
    },
    {
      "bufferView": 2,
      "byteOffset": 596544,
      "componentType": 5126,
      "count": 1096,
      "max": [
        2.5022103786468506,
        4.304280757904053,
        0.627339780330658
      ],
      "min": [
        -2.5022103786468506,
        -1.8704776763916016,
        -0.627339780330658
      ],
      "type": "VEC3"
    },
    {
      "bufferView": 2,
      "byteOffset": 609696,
      "componentType": 5126,
      "count": 1096,
      "max": [
        1.0,
        1.0,
        1.0
      ],
      "min": [
        -1.0,
        -1.0,
        -1.0
      ],
      "type": "VEC3"
    },
    {
      "bufferView": 1,
      "byteOffset": 596544,
      "componentType": 5126,
      "count": 1096,
      "max": [
        0.9903263449668884,
        0.6198673248291016
      ],
      "min": [
        0.497042179107666,
        0.3361099064350128
      ],
      "type": "VEC2"
    },
    {
      "bufferView": 1,
      "byteOffset": 605312,
      "componentType": 5126,
      "count": 1096,
      "max": [
        0.9903263449668884,
        0.6198673248291016
      ],
      "min": [
        0.497042179107666,
        0.3361099064350128
      ],
      "type": "VEC2"
    },
    {
      "bufferView": 1,
      "byteOffset": 614080,
      "componentType": 5126,
      "count": 1096,
      "max": [
        0.9903263449668884,
        0.6198673248291016
      ],
      "min": [
        0.497042179107666,
        0.3361099064350128
      ],
      "type": "VEC2"
    },
    {
      "bufferView": 0,
      "byteOffset": 244056,
      "componentType": 5125,
      "count": 1920,
      "type": "SCALAR"
    },
    {
      "bufferView": 2,
      "byteOffset": 622848,
      "componentType": 5126,
      "count": 1288,
      "max": [
        0.4419245719909668,
        3.0786068439483643,
        0.4263150095939636
      ],
      "min": [
        -0.4419245719909668,
        0.8662595152854919,
        -0.4263150095939636
      ],
      "type": "VEC3"
    },
    {
      "bufferView": 2,
      "byteOffset": 638304,
      "componentType": 5126,
      "count": 1288,
      "max": [
        1.0,
        1.0,
        1.0
      ],
      "min": [
        -1.0,
        -1.0,
        -1.0
      ],
      "type": "VEC3"
    },
    {
      "bufferView": 1,
      "byteOffset": 622848,
      "componentType": 5126,
      "count": 1288,
      "max": [
        0.399565190076828,
        0.7039658427238464
      ],
      "min": [
        0.008903074078261852,
        0.5201840996742249
      ],
      "type": "VEC2"
    },
    {
      "bufferView": 1,
      "byteOffset": 633152,
      "componentType": 5126,
      "count": 1288,
      "max": [
        0.399565190076828,
        0.7039658427238464
      ],
      "min": [
        0.008903074078261852,
        0.5201840996742249
      ],
      "type": "VEC2"
    },
    {
      "bufferView": 1,
      "byteOffset": 643456,
      "componentType": 5126,
      "count": 1288,
      "max": [
        0.399565190076828,
        0.7039658427238464
      ],
      "min": [
        0.008903074078261852,
        0.5201840996742249
      ],
      "type": "VEC2"
    },
    {
      "bufferView": 0,
      "byteOffset": 251736,
      "componentType": 5125,
      "count": 4020,
      "type": "SCALAR"
    }
  ],
  "asset": {
    "extras": {
      "author": "Quiznos323 (https://sketchfab.com/quiznos323)",
      "license": "CC-BY-NC-SA-4.0 (http://creativecommons.org/licenses/by-nc-sa/4.0/)",
      "source": "https://sketchfab.com/3d-models/tie-advanced-x1-vaders-tie-star-wars-98f1decbda5c48aea22a11c7ddd62a7b",
      "title": "TIE Advanced x1 (Vader's TIE) - Star Wars"
    },
    "generator": "Sketchfab-16.12.0",
    "version": "2.0"
  },
  "bufferViews": [
    {
      "buffer": 0,
      "byteLength": 267816,
      "name": "floatBufferViews",
      "target": 34963
    },
    {
      "buffer": 0,
      "byteLength": 653760,
      "byteOffset": 267816,
      "byteStride": 8,
      "name": "floatBufferViews",
      "target": 34962
    },
    {
      "buffer": 0,
      "byteLength": 653760,
      "byteOffset": 921576,
      "byteStride": 12,
      "name": "floatBufferViews",
      "target": 34962
    }
  ],
  "buffers": [
    {
      "byteLength": 1575336,
      "uri": "scene.bin"
    }
  ],
  "extensionsUsed": [
    "KHR_materials_emissive_strength"
  ],
  "images": [
    {
      "uri": "textures/TieAdvancedx1_baseColor.png"
    },
    {
      "uri": "textures/TieAdvancedx1_metallicRoughness.png"
    },
    {
      "uri": "textures/TieAdvancedx1_emissive.png"
    }
  ],
  "materials": [
    {
      "doubleSided": true,
      "emissiveFactor": [
        1.0,
        1.0,
        1.0
      ],
      "emissiveTexture": {
        "index": 2
      },
      "extensions": {
        "KHR_materials_emissive_strength": {
          "emissiveStrength": 10.0
        }
      },
      "name": "TieAdvancedx1",
      "pbrMetallicRoughness": {
        "baseColorTexture": {
          "index": 0
        },
        "metallicFactor": 0.0,
        "metallicRoughnessTexture": {
          "index": 1
        }
      }
    }
  ],
  "meshes": [
    {
      "name": "Cockpit_TieAdvancedx1_0",
      "primitives": [
        {
          "attributes": {
            "NORMAL": 1,
            "POSITION": 0,
            "TEXCOORD_0": 2,
            "TEXCOORD_1": 3,
            "TEXCOORD_2": 4
          },
          "indices": 5,
          "material": 0,
          "mode": 4
        }
      ]
    },
    {
      "name": "Guns_TieAdvancedx1_0",
      "primitives": [
        {
          "attributes": {
            "NORMAL": 7,
            "POSITION": 6,
            "TEXCOORD_0": 8,
            "TEXCOORD_1": 9,
            "TEXCOORD_2": 10
          },
          "indices": 11,
          "material": 0,
          "mode": 4
        }
      ]
    },
    {
      "name": "Wing Greeble 1_TieAdvancedx1_0",
      "primitives": [
        {
          "attributes": {
            "NORMAL": 13,
            "POSITION": 12,
            "TEXCOORD_0": 14,
            "TEXCOORD_1": 15,
            "TEXCOORD_2": 16
          },
          "indices": 17,
          "material": 0,
          "mode": 4
        }
      ]
    },
    {
      "name": "Wing Greeble 2_TieAdvancedx1_0",
      "primitives": [
        {
          "attributes": {
            "NORMAL": 19,
            "POSITION": 18,
            "TEXCOORD_0": 20,
            "TEXCOORD_1": 21,
            "TEXCOORD_2": 22
          },
          "indices": 23,
          "material": 0,
          "mode": 4
        }
      ]
    },
    {
      "name": "Wing Greeble 3_TieAdvancedx1_0",
      "primitives": [
        {
          "attributes": {
            "NORMAL": 25,
            "POSITION": 24,
            "TEXCOORD_0": 26,
            "TEXCOORD_1": 27,
            "TEXCOORD_2": 28
          },
          "indices": 29,
          "material": 0,
          "mode": 4
        }
      ]
    },
    {
      "name": "Wings Greeble 4_TieAdvancedx1_0",
      "primitives": [
        {
          "attributes": {
            "NORMAL": 31,
            "POSITION": 30,
            "TEXCOORD_0": 32,
            "TEXCOORD_1": 33,
            "TEXCOORD_2": 34
          },
          "indices": 35,
          "material": 0,
          "mode": 4
        }
      ]
    },
    {
      "name": "Wing struts_TieAdvancedx1_0",
      "primitives": [
        {
          "attributes": {
            "NORMAL": 37,
            "POSITION": 36,
            "TEXCOORD_0": 38,
            "TEXCOORD_1": 39,
            "TEXCOORD_2": 40
          },
          "indices": 41,
          "material": 0,
          "mode": 4
        }
      ]
    },
    {
      "name": "Wings_TieAdvancedx1_0",
      "primitives": [
        {
          "attributes": {
            "NORMAL": 43,
            "POSITION": 42,
            "TEXCOORD_0": 44,
            "TEXCOORD_1": 45,
            "TEXCOORD_2": 46
          },
          "indices": 47,
          "material": 0,
          "mode": 4
        }
      ]
    },
    {
      "name": "Rear fuselage_TieAdvancedx1_0",
      "primitives": [
        {
          "attributes": {
            "NORMAL": 49,
            "POSITION": 48,
            "TEXCOORD_0": 50,
            "TEXCOORD_1": 51,
            "TEXCOORD_2": 52
          },
          "indices": 53,
          "material": 0,
          "mode": 4
        }
      ]
    },
    {
      "name": "Inside wing detailing_TieAdvancedx1_0",
      "primitives": [
        {
          "attributes": {
            "NORMAL": 55,
            "POSITION": 54,
            "TEXCOORD_0": 56,
            "TEXCOORD_1": 57,
            "TEXCOORD_2": 58
          },
          "indices": 59,
          "material": 0,
          "mode": 4
        }
      ]
    },
    {
      "name": "center column_TieAdvancedx1_0",
      "primitives": [
        {
          "attributes": {
            "NORMAL": 61,
            "POSITION": 60,
            "TEXCOORD_0": 62,
            "TEXCOORD_1": 63,
            "TEXCOORD_2": 64
          },
          "indices": 65,
          "material": 0,
          "mode": 4
        }
      ]
    }
  ],
  "nodes": [
    {
      "children": [
        1
      ],
      "matrix": [
        1.0,
        0.0,
        0.0,
        0.0,
        0.0,
        2.220446049250313e-16,
        -1.0,
        0.0,
        0.0,
        1.0,
        2.220446049250313e-16,
        0.0,
        0.0,
        0.0,
        0.0,
        1.0
      ],
      "name": "Sketchfab_model"
    },
    {
      "children": [
        2
      ],
      "matrix": [
        1.0,
        0.0,
        0.0,
        0.0,
        0.0,
        0.0,
        1.0,
        0.0,
        0.0,
        -1.0,
        0.0,
        0.0,
        0.0,
        0.0,
        0.0,
        1.0
      ],
      "name": "TieAdvancedx1.fbx"
    },
    {
      "children": [
        3,
        5,
        7,
        9,
        11,
        13,
        15,
        17,
        19,
        21,
        23
      ],
      "name": "RootNode"
    },
    {
      "children": [
        4
      ],
      "matrix": [
        109.39962768554688,
        0.0,
        0.0,
        0.0,
        0.0,
        -1.7823461667742706e-05,
        -109.39962768554543,
        0.0,
        0.0,
        109.39962768554543,
        -1.7823461667742706e-05,
        0.0,
        0.0,
        0.0,
        0.0,
        1.0
      ],
      "name": "Cockpit"
    },
    {
      "mesh": 0,
      "name": "Cockpit_TieAdvancedx1_0"
    },
    {
      "children": [
        6
      ],
      "matrix": [
        109.39962768554688,
        0.0,
        0.0,
        0.0,
        0.0,
        -1.7823461667742706e-05,
        -109.39962768554543,
        0.0,
        0.0,
        109.39962768554543,
        -1.7823461667742706e-05,
        0.0,
        0.0,
        0.0,
        0.0,
        1.0
      ],
      "name": "Guns"
    },
    {
      "mesh": 1,
      "name": "Guns_TieAdvancedx1_0"
    },
    {
      "children": [
        8
      ],
      "matrix": [
        109.39962768554688,
        0.0,
        0.0,
        0.0,
        0.0,
        -1.7823461667742706e-05,
        -109.39962768554543,
        0.0,
        0.0,
        109.39962768554543,
        -1.7823461667742706e-05,
        0.0,
        0.0,
        0.0,
        0.0,
        1.0
      ],
      "name": "Wing Greeble 1"
    },
    {
      "mesh": 2,
      "name": "Wing Greeble 1_TieAdvancedx1_0"
    },
    {
      "children": [
        10
      ],
      "matrix": [
        109.39962768554688,
        0.0,
        0.0,
        0.0,
        0.0,
        -1.7823461667742706e-05,
        -109.39962768554543,
        0.0,
        0.0,
        109.39962768554543,
        -1.7823461667742706e-05,
        0.0,
        0.0,
        0.0,
        0.0,
        1.0
      ],
      "name": "Wing Greeble 2"
    },
    {
      "mesh": 3,
      "name": "Wing Greeble 2_TieAdvancedx1_0"
    },
    {
      "children": [
        12
      ],
      "matrix": [
        109.39962768554688,
        0.0,
        0.0,
        0.0,
        0.0,
        -1.7823461667742706e-05,
        -109.39962768554543,
        0.0,
        0.0,
        109.39962768554543,
        -1.7823461667742706e-05,
        0.0,
        0.0,
        0.0,
        0.0,
        1.0
      ],
      "name": "Wing Greeble 3"
    },
    {
      "mesh": 4,
      "name": "Wing Greeble 3_TieAdvancedx1_0"
    },
    {
      "children": [
        14
      ],
      "matrix": [
        109.39962768554688,
        0.0,
        0.0,
        0.0,
        0.0,
        -1.7823461667742706e-05,
        -109.39962768554543,
        0.0,
        0.0,
        109.39962768554543,
        -1.7823461667742706e-05,
        0.0,
        0.0,
        0.0,
        0.0,
        1.0
      ],
      "name": "Wings Greeble 4"
    },
    {
      "mesh": 5,
      "name": "Wings Greeble 4_TieAdvancedx1_0"
    },
    {
      "children": [
        16
      ],
      "matrix": [
        100.0,
        0.0,
        0.0,
        0.0,
        0.0,
        -1.629206793918314e-05,
        -99.99999999999868,
        0.0,
        0.0,
        99.99999999999868,
        -1.629206793918314e-05,
        0.0,
        0.0,
        0.0,
        0.0,
        1.0
      ],
      "name": "Wing struts"
    },
    {
      "mesh": 6,
      "name": "Wing struts_TieAdvancedx1_0"
    },
    {
      "children": [
        18
      ],
      "matrix": [
        100.0,
        0.0,
        0.0,
        0.0,
        0.0,
        -1.629206793918314e-05,
        -99.99999999999868,
        0.0,
        0.0,
        99.99999999999868,
        -1.629206793918314e-05,
        0.0,
        0.0,
        0.0,
        0.0,
        1.0
      ],
      "name": "Wings"
    },
    {
      "mesh": 7,
      "name": "Wings_TieAdvancedx1_0"
    },
    {
      "children": [
        20
      ],
      "matrix": [
        100.0,
        0.0,
        0.0,
        0.0,
        0.0,
        -1.629206793918314e-05,
        -99.99999999999868,
        0.0,
        0.0,
        99.99999999999868,
        -1.629206793918314e-05,
        0.0,
        0.0,
        0.0,
        0.0,
        1.0
      ],
      "name": "Rear fuselage"
    },
    {
      "mesh": 8,
      "name": "Rear fuselage_TieAdvancedx1_0"
    },
    {
      "children": [
        22
      ],
      "matrix": [
        100.0,
        0.0,
        0.0,
        0.0,
        0.0,
        -1.629206793918314e-05,
        -99.99999999999868,
        0.0,
        0.0,
        99.99999999999868,
        -1.629206793918314e-05,
        0.0,
        0.0,
        0.0,
        0.0,
        1.0
      ],
      "name": "Inside wing detailing"
    },
    {
      "mesh": 9,
      "name": "Inside wing detailing_TieAdvancedx1_0"
    },
    {
      "children": [
        24
      ],
      "matrix": [
        100.0,
        0.0,
        0.0,
        0.0,
        0.0,
        -1.629206793918314e-05,
        -99.99999999999868,
        0.0,
        0.0,
        99.99999999999868,
        -1.629206793918314e-05,
        0.0,
        0.0,
        0.0,
        0.0,
        1.0
      ],
      "name": "center column"
    },
    {
      "mesh": 10,
      "name": "center column_TieAdvancedx1_0"
    }
  ],
  "samplers": [
    {
      "magFilter": 9729,
      "minFilter": 9987,
      "wrapS": 10497,
      "wrapT": 10497
    }
  ],
  "scene": 0,
  "scenes": [
    {
      "name": "Sketchfab_Scene",
      "nodes": [
        0
      ]
    }
  ],
  "textures": [
    {
      "sampler": 0,
      "source": 0
    },
    {
      "sampler": 0,
      "source": 1
    },
    {
      "sampler": 0,
      "source": 2
    }
  ]
}
