<?xml version="1.0" encoding="UTF-8"?>
<svg xmlns="http://www.w3.org/2000/svg" width="96" height="96" viewBox="0 0 96 96">
  <path d="M 80.00 81.50 L 75.50 80.00 L 75.50 53.00 L 74.00 51.50 L 65.00 53.50 L 57.00 62.50 L 52.00 64.50 L 40.00 63.50 L 30.00 53.50 L 21.00 51.50 L 19.50 53.00 L 19.50 80.00 L 18.00 81.50 L 13.50 80.00 L 13.50 15.00 L 15.00 13.50 L 19.50 15.00 L 19.50 42.00 L 21.00 43.50 L 30.00 41.50 L 35.50 35.00 L 35.50 29.00 L 37.00 27.50 L 41.00 31.50 L 54.00 31.50 L 58.00 27.50 L 59.50 29.00 L 59.50 35.00 L 63.50 40.00 L 70.00 43.50 L 74.00 43.50 L 75.50 42.00 L 75.50 15.00 L 77.00 13.50 L 81.50 15.00 L 81.50 80.00 Z M 52.50 57.00 L 57.50 52.00 L 57.50 43.00 L 52.00 37.50 L 48.00 39.50 L 43.00 37.50 L 37.50 43.00 L 37.50 52.00 L 43.00 57.50 L 47.00 55.50 L 50.00 57.50 Z" fill="#000" fill-rule="evenodd"/>
</svg>
