<svg xmlns="http://www.w3.org/2000/svg" width="96" height="96" viewBox="0 0 246 205">
  <path d="M527 1683 c-4 -137 -7 -310 -7 -385 0 -80 -4 -139 -10 -143 -6 -3 -10 -19 -10 -36 0 -16 -4 -29 -10 -29 -6 0 -10 -28 -10 -65 0 -37 4 -65 10 -65 6 0 10 -13 10 -28 0 -15 4 -32 9 -37 5 -6 12 -181 16 -390 4 -209 9 -382 11 -384 2 -2 6 -2 8 0 2 2 7 162 11 354 l7 350 24 18 c20 15 24 28 24 68 l0 49 71 0 c98 0 305 -59 334 -96 l20 -25 29 30 28 30 -21 43 c-11 25 -21 62 -21 83 0 21 10 58 21 83 l21 43 -28 30 -29 30 -20 -25 c-28 -35 -243 -96 -337 -96 l-68 0 0 49 c0 41 -4 53 -25 69 -24 19 -25 25 -25 114 0 198 -13 608 -20 608 -4 0 -10 -111 -13 -247z" fill="#0d2740"/>
</svg>
