<?xml version="1.0" standalone="no"?>
<!DOCTYPE svg PUBLIC "-//W3C//DTD SVG 20010904//EN"
 "http://www.w3.org/TR/2001/REC-SVG-20010904/DTD/svg10.dtd">
<svg version="1.0" xmlns="http://www.w3.org/2000/svg"
 width="246.000000pt" height="205.000000pt" viewBox="0 0 246.000000 205.000000"
 preserveAspectRatio="xMidYMid meet">

<g transform="translate(0.000000,205.000000) scale(0.100000,-0.100000)"
fill="#000000" stroke="none">
<path d="M527 1683 c-4 -137 -7 -310 -7 -385 0 -80 -4 -139 -10 -143 -6 -3
-10 -19 -10 -36 0 -16 -4 -29 -10 -29 -6 0 -10 -28 -10 -65 0 -37 4 -65 10
-65 6 0 10 -13 10 -28 0 -15 4 -32 9 -37 5 -6 12 -181 16 -390 4 -209 9 -382
11 -384 2 -2 6 -2 8 0 2 2 7 162 11 354 l7 350 24 18 c20 15 24 28 24 68 l0
49 71 0 c98 0 305 -59 334 -96 l20 -25 29 30 28 30 -21 43 c-11 25 -21 62 -21
83 0 21 10 58 21 83 l21 43 -28 30 -29 30 -20 -25 c-28 -35 -243 -96 -337 -96
l-68 0 0 49 c0 41 -4 53 -25 69 -24 19 -25 25 -25 114 0 198 -13 608 -20 608
-4 0 -10 -111 -13 -247z"/>
<path d="M1910 1818 c0 -62 -3 -221 -7 -353 -6 -236 -7 -240 -30 -258 -18 -15
-23 -28 -23 -68 l0 -49 -68 0 c-94 0 -309 61 -337 96 l-21 24 -28 -29 -28 -30
21 -43 c11 -25 21 -62 21 -83 0 -21 -10 -58 -21 -83 l-21 -43 28 -30 28 -29
21 25 c29 36 237 95 334 95 l71 0 0 -49 c0 -41 4 -53 24 -68 l25 -18 7 -353
c4 -193 10 -352 14 -352 8 0 20 338 20 587 0 110 4 184 10 188 6 3 10 19 10
36 0 16 5 29 10 29 6 0 10 28 10 65 0 37 -4 65 -10 65 -5 0 -10 13 -10 28 0
15 -4 32 -9 38 -7 7 -20 490 -21 737 0 20 -4 37 -10 37 -6 0 -10 -44 -10 -112z"/>
<path d="M1190 1279 c0 -7 -11 -9 -27 -6 -16 3 -40 -2 -58 -11 l-30 -17 77 -3
c43 -2 113 -2 155 0 l78 3 -31 17 c-18 10 -41 14 -53 11 -14 -4 -27 0 -33 8
-7 11 -11 11 -15 2 -6 -15 -43 -17 -43 -3 0 6 -4 10 -10 10 -5 0 -10 -5 -10
-11z"/>
<path d="M1075 1191 l28 -30 41 21 c55 29 122 28 171 -1 l38 -22 31 30 31 31
-185 0 -184 0 29 -29z"/>
<path d="M1171 1169 l-44 -20 28 -29 c16 -17 37 -30 47 -30 15 0 18 8 18 50 0
28 -1 50 -2 49 -2 0 -23 -9 -47 -20z"/>
<path d="M1240 1136 c0 -57 19 -64 61 -20 l32 34 -36 15 c-53 22 -57 20 -57
-29z"/>
<path d="M1092 1104 c-5 -16 -13 -37 -17 -46 -6 -16 -1 -18 38 -18 25 0 49 5
53 11 3 6 -9 27 -28 46 l-35 35 -11 -28z"/>
<path d="M1315 1090 c-35 -37 -25 -53 33 -48 l40 3 -15 38 c-8 20 -18 37 -22
37 -4 0 -20 -14 -36 -30z"/>
<path d="M1204 1073 c-59 -42 -7 -127 53 -87 23 14 30 48 15 71 -9 15 -54 25
-68 16z"/>
<path d="M1070 1006 c0 -2 8 -22 18 -45 l19 -40 32 33 c18 19 30 39 27 45 -7
10 -96 16 -96 7z"/>
<path d="M1294 999 c-3 -6 9 -26 27 -45 l34 -34 16 45 17 45 -44 0 c-23 0 -46
-5 -50 -11z"/>
<path d="M1173 952 c-47 -43 -47 -50 -8 -67 53 -21 55 -20 55 29 0 50 -18 64
-47 38z"/>
<path d="M1253 963 c-8 -3 -13 -24 -13 -53 l0 -49 40 18 c22 10 42 20 45 23 8
8 -60 66 -72 61z"/>
<path d="M1077 862 c-15 -15 -27 -31 -27 -34 0 -9 65 -48 79 -48 15 0 14 83
-1 98 -17 17 -21 16 -51 -16z"/>
<path d="M1332 878 c-15 -15 -16 -98 -1 -98 9 0 50 25 78 47 5 4 -50 63 -59
63 -3 0 -11 -5 -18 -12z"/>
<path d="M1162 812 l3 -47 65 0 65 0 3 47 3 46 -35 -8 c-20 -4 -52 -4 -72 0
l-35 8 3 -46z m56 -9 c-4 -22 -22 -20 -26 1 -2 10 3 16 13 16 10 0 15 -7 13
-17z m47 -1 c0 -18 -20 -15 -23 4 -3 10 1 15 10 12 7 -3 13 -10 13 -16z"/>
</g>
</svg>
