<?xml version="1.0" encoding="iso-8859-1"?>
<!-- Uploaded to: SVG Repo, www.svgrepo.com, Generator: SVG Repo Mixer Tools -->
<svg fill="#000000" height="800px" width="800px" version="1.1" id="Layer_1" xmlns="http://www.w3.org/2000/svg" xmlns:xlink="http://www.w3.org/1999/xlink" 
	 viewBox="0 0 512 512" xml:space="preserve">
<g>
	<g>
		<path d="M256,0C114.837,0,0,114.837,0,256s114.837,256,256,256s256-114.837,256-256S397.163,0,256,0z M149.333,277.333h-64
			C73.557,277.333,64,267.776,64,256c0-11.776,9.557-21.333,21.333-21.333h64c11.776,0,21.333,9.557,21.333,21.333
			C170.667,267.776,161.109,277.333,149.333,277.333z M277.333,426.667c0,11.776-9.557,21.333-21.333,21.333
			s-21.333-9.557-21.333-21.333v-64c0-11.776,9.557-21.333,21.333-21.333s21.333,9.557,21.333,21.333V426.667z M256,277.333
			c-11.776,0-21.333-9.557-21.333-21.333c0-11.776,9.557-21.333,21.333-21.333s21.333,9.557,21.333,21.333
			C277.333,267.776,267.776,277.333,256,277.333z M277.333,149.333c0,11.776-9.557,21.333-21.333,21.333
			s-21.333-9.557-21.333-21.333v-64C234.667,73.557,244.224,64,256,64s21.333,9.557,21.333,21.333V149.333z M426.667,277.333h-64
			c-11.776,0-21.333-9.557-21.333-21.333c0-11.776,9.557-21.333,21.333-21.333h64c11.776,0,21.333,9.557,21.333,21.333
			C448,267.776,438.443,277.333,426.667,277.333z"/>
	</g>
</g>
</svg>