<?xml version="1.0" encoding="UTF-8"?>
<svg xmlns="http://www.w3.org/2000/svg" width="371" height="415" viewBox="0 0 371 415">
  <path d="M 177.00 148.00 L 166.00 154.00 L 160.00 161.00 L 156.00 170.00 L 156.00 185.00 L 161.00 196.00 L 168.00 203.00 L 180.00 208.00 L 192.00 208.00 L 202.00 204.00 L 210.00 197.00 L 216.00 184.00 L 216.00 172.00 L 213.00 163.00 L 203.00 152.00 L 194.00 148.00 Z M 183.00 163.00 L 189.00 163.00 L 195.00 166.00 L 200.00 173.00 L 200.00 182.00 L 198.00 186.00 L 193.00 191.00 L 187.00 193.00 L 179.00 191.00 L 171.00 181.00 L 171.00 175.00 L 173.00 170.00 L 178.00 165.00 Z M 252.00 92.00 L 249.00 91.00 L 238.00 101.00 L 237.00 104.00 L 254.00 153.00 L 253.00 157.00 L 225.00 148.00 L 215.00 138.00 L 202.00 131.00 L 186.00 128.00 L 167.00 132.00 L 154.00 140.00 L 147.00 148.00 L 119.00 157.00 L 119.00 149.00 L 132.00 112.00 L 134.00 102.00 L 124.00 92.00 L 120.00 92.00 L 118.00 94.00 L 81.00 159.00 L 81.00 198.00 L 106.00 255.00 L 112.00 264.00 L 114.00 264.00 L 125.00 253.00 L 117.00 202.00 L 119.00 200.00 L 147.00 208.00 L 162.00 221.00 L 180.00 227.00 L 191.00 227.00 L 201.00 225.00 L 214.00 218.00 L 227.00 207.00 L 253.00 200.00 L 255.00 204.00 L 246.00 252.00 L 256.00 263.00 L 260.00 264.00 L 262.00 262.00 L 290.00 199.00 L 290.00 158.00 Z M 279.00 200.00 L 281.00 203.00 L 270.00 226.00 L 265.00 240.00 L 257.00 254.00 L 254.00 251.00 L 254.00 244.00 L 258.00 227.00 L 261.00 204.00 L 264.00 200.00 Z M 92.00 200.00 L 108.00 200.00 L 110.00 202.00 L 118.00 251.00 L 115.00 254.00 L 111.00 250.00 L 106.00 236.00 L 90.00 202.00 Z M 246.00 189.00 L 246.00 193.00 L 244.00 195.00 L 233.00 199.00 L 231.00 198.00 L 232.00 193.00 L 234.00 191.00 L 241.00 191.00 L 244.00 188.00 Z M 125.00 188.00 L 127.00 187.00 L 131.00 191.00 L 137.00 191.00 L 141.00 197.00 L 139.00 199.00 L 127.00 195.00 L 125.00 193.00 Z M 264.00 166.00 L 271.00 169.00 L 274.00 172.00 L 274.00 184.00 L 265.00 190.00 L 262.00 189.00 L 262.00 168.00 Z M 107.00 166.00 L 110.00 168.00 L 110.00 189.00 L 108.00 191.00 L 98.00 184.00 L 98.00 172.00 Z M 278.00 163.00 L 282.00 163.00 L 284.00 165.00 L 284.00 192.00 L 282.00 194.00 L 275.00 193.00 L 280.00 189.00 L 280.00 167.00 L 277.00 165.00 Z M 90.00 163.00 L 94.00 164.00 L 91.00 168.00 L 91.00 188.00 L 96.00 192.00 L 95.00 194.00 L 90.00 194.00 L 88.00 192.00 L 88.00 165.00 Z M 231.00 159.00 L 233.00 157.00 L 244.00 161.00 L 246.00 163.00 L 246.00 167.00 L 244.00 168.00 L 242.00 166.00 L 235.00 166.00 Z M 141.00 159.00 L 137.00 166.00 L 129.00 166.00 L 127.00 169.00 L 125.00 168.00 L 125.00 163.00 L 127.00 161.00 L 138.00 157.00 Z M 159.00 145.00 L 213.00 145.00 L 219.00 151.00 L 226.00 163.00 L 229.00 179.00 L 227.00 190.00 L 224.00 197.00 L 211.00 212.00 L 161.00 212.00 L 153.00 205.00 L 146.00 194.00 L 143.00 177.00 L 145.00 164.00 L 150.00 155.00 Z M 175.00 137.00 L 180.00 135.00 L 192.00 135.00 L 196.00 136.00 L 197.00 138.00 L 176.00 139.00 Z M 248.00 101.00 L 253.00 106.00 L 269.00 136.00 L 276.00 146.00 L 280.00 154.00 L 279.00 157.00 L 263.00 157.00 L 261.00 155.00 L 245.00 104.00 Z M 124.00 101.00 L 127.00 105.00 L 114.00 142.00 L 111.00 155.00 L 109.00 157.00 L 92.00 157.00 L 91.00 155.00 L 121.00 102.00 Z" fill="#000" fill-rule="evenodd"/>
</svg>
