<?xml version="1.0" encoding="UTF-8"?>
<svg xmlns="http://www.w3.org/2000/svg" width="383" height="384" viewBox="0 0 383 384">
  <path d="M 198.00 180.00 L 191.00 183.00 L 185.00 189.00 L 182.00 196.00 L 182.00 207.00 L 185.00 214.00 L 191.00 220.00 L 198.00 223.00 L 209.00 223.00 L 216.00 220.00 L 222.00 214.00 L 225.00 207.00 L 225.00 196.00 L 222.00 189.00 L 216.00 183.00 L 209.00 180.00 Z M 204.00 213.00 L 208.00 210.00 L 211.00 210.00 L 216.00 215.00 L 216.00 217.00 L 212.00 220.00 L 206.00 221.00 L 204.00 219.00 Z M 196.00 210.00 L 199.00 210.00 L 203.00 213.00 L 203.00 219.00 L 201.00 221.00 L 195.00 220.00 L 191.00 217.00 L 191.00 215.00 Z M 215.00 202.00 L 221.00 202.00 L 223.00 204.00 L 222.00 210.00 L 219.00 214.00 L 217.00 214.00 L 212.00 209.00 L 212.00 206.00 Z M 186.00 202.00 L 192.00 202.00 L 195.00 206.00 L 195.00 209.00 L 190.00 214.00 L 188.00 214.00 L 185.00 210.00 L 184.00 204.00 Z M 199.00 195.00 L 206.00 194.00 L 210.00 197.00 L 211.00 204.00 L 208.00 208.00 L 200.00 209.00 L 196.00 205.00 L 196.00 198.00 Z M 217.00 189.00 L 219.00 189.00 L 222.00 193.00 L 223.00 199.00 L 221.00 201.00 L 215.00 201.00 L 212.00 197.00 L 212.00 194.00 Z M 188.00 189.00 L 190.00 189.00 L 195.00 194.00 L 195.00 197.00 L 192.00 201.00 L 186.00 201.00 L 184.00 199.00 L 185.00 193.00 Z M 206.00 182.00 L 212.00 183.00 L 216.00 186.00 L 216.00 188.00 L 211.00 193.00 L 208.00 193.00 L 204.00 190.00 L 204.00 184.00 Z M 201.00 182.00 L 203.00 184.00 L 203.00 190.00 L 199.00 193.00 L 196.00 193.00 L 191.00 188.00 L 191.00 186.00 L 195.00 183.00 Z M 130.00 95.00 L 129.00 307.00 L 134.00 307.00 L 134.00 218.00 L 136.00 216.00 L 156.00 216.00 L 178.00 221.00 L 187.00 228.00 L 196.00 232.00 L 211.00 232.00 L 220.00 228.00 L 229.00 221.00 L 251.00 216.00 L 271.00 216.00 L 273.00 218.00 L 273.00 307.00 L 277.00 308.00 L 278.00 96.00 L 273.00 96.00 L 273.00 185.00 L 271.00 187.00 L 251.00 187.00 L 229.00 182.00 L 220.00 175.00 L 211.00 171.00 L 196.00 171.00 L 187.00 175.00 L 178.00 182.00 L 156.00 187.00 L 136.00 187.00 L 134.00 185.00 L 134.00 96.00 Z M 257.00 189.00 L 271.00 189.00 L 273.00 191.00 L 273.00 212.00 L 271.00 214.00 L 257.00 214.00 L 255.00 212.00 L 255.00 191.00 Z M 136.00 189.00 L 150.00 189.00 L 152.00 191.00 L 152.00 212.00 L 150.00 214.00 L 136.00 214.00 L 134.00 212.00 L 134.00 191.00 Z M 232.00 184.00 L 252.00 188.00 L 254.00 190.00 L 254.00 213.00 L 252.00 215.00 L 232.00 219.00 L 230.00 217.00 L 234.00 209.00 L 234.00 194.00 L 230.00 186.00 Z M 175.00 184.00 L 177.00 186.00 L 173.00 194.00 L 173.00 209.00 L 177.00 217.00 L 175.00 219.00 L 155.00 215.00 L 153.00 213.00 L 153.00 190.00 L 155.00 188.00 Z M 193.00 174.00 L 214.00 174.00 L 221.00 178.00 L 230.00 189.00 L 232.00 195.00 L 232.00 208.00 L 230.00 214.00 L 221.00 225.00 L 214.00 229.00 L 193.00 229.00 L 186.00 225.00 L 180.00 219.00 L 176.00 212.00 L 176.00 191.00 L 180.00 184.00 L 186.00 178.00 Z" fill="#000" fill-rule="evenodd" stroke="#000" stroke-width="12" stroke-linejoin="round" stroke-linecap="round"/>
</svg>
