{
  "accessors": [
    {
      "bufferView": 2,
      "componentType": 5126,
      "count": 6282,
      "max": [
        1.0,
        0.7197099924087524,
        0.7225220203399658
      ],
      "min": [
        -1.0,
        -0.7197099924087524,
        -0.7225220203399658
      ],
      "type": "VEC3"
    },
    {
      "bufferView": 2,
      "byteOffset": 75384,
      "componentType": 5126,
      "count": 6282,
      "max": [
        0.9993488192558289,
        0.9998941421508789,
        0.9999191761016846
      ],
      "min": [
        -0.9978575110435486,
        -0.9986425042152405,
        -0.9999921321868896
      ],
      "type": "VEC3"
    },
    {
      "bufferView": 3,
      "componentType": 5126,
      "count": 6282,
      "max": [
        0.9948861002922058,
        0.9988765716552734,
        0.9998121857643127,
        1.0
      ],
      "min": [
        -0.9997916221618652,
        -0.9997718334197998,
        -0.9970718622207642,
        1.0
      ],
      "type": "VEC4"
    },
    {
      "bufferView": 1,
      "componentType": 5126,
      "count": 6282,
      "max": [
        0.9873999953269958,
        0.9993000030517578
      ],
      "min": [
        0.0024999999441206455,
        9.999999747378752e-05
      ],
      "type": "VEC2"
    },
    {
      "bufferView": 0,
      "componentType": 5125,
      "count": 28530,
      "type": "SCALAR"
    }
  ],
  "asset": {
    "extras": {
      "author": "laboratorija (https://sketchfab.com/laboratorija)",
      "license": "CC-BY-NC-SA-4.0 (http://creativecommons.org/licenses/by-nc-sa/4.0/)",
      "source": "https://sketchfab.com/3d-models/rock-scan-d57fc168dfcb4a19b7bff3fe70c21bc9",
      "title": "Rock scan"
    },
    "generator": "Sketchfab-12.67.0",
    "version": "2.0"
  },
  "bufferViews": [
    {
      "buffer": 0,
      "byteLength": 114120,
      "name": "floatBufferViews",
      "target": 34963
    },
    {
      "buffer": 0,
      "byteLength": 50256,
      "byteOffset": 114120,
      "byteStride": 8,
      "name": "floatBufferViews",
      "target": 34962
    },
    {
      "buffer": 0,
      "byteLength": 150768,
      "byteOffset": 164376,
      "byteStride": 12,
      "name": "floatBufferViews",
      "target": 34962
    },
    {
      "buffer": 0,
      "byteLength": 100512,
      "byteOffset": 315144,
      "byteStride": 16,
      "name": "floatBufferViews",
      "target": 34962
    }
  ],
  "buffers": [
    {
      "byteLength": 415656,
      "uri": "scene.bin"
    }
  ],
  "images": [
    {
      "uri": "textures/Material__25_baseColor.jpeg"
    },
    {
      "uri": "textures/Material__25_metallicRoughness.png"
    },
    {
      "uri": "textures/Material__25_normal.png"
    }
  ],
  "materials": [
    {
      "doubleSided": true,
      "name": "Material__25",
      "normalTexture": {
        "index": 2
      },
      "pbrMetallicRoughness": {
        "baseColorTexture": {
          "index": 0
        },
        "metallicRoughnessTexture": {
          "index": 1
        }
      }
    }
  ],
  "meshes": [
    {
      "name": "defaultMaterial",
      "primitives": [
        {
          "attributes": {
            "NORMAL": 1,
            "POSITION": 0,
            "TANGENT": 2,
            "TEXCOORD_0": 3
          },
          "indices": 4,
          "material": 0,
          "mode": 4
        }
      ]
    }
  ],
  "nodes": [
    {
      "children": [
        1
      ],
      "matrix": [
        1.0,
        0.0,
        0.0,
        0.0,
        0.0,
        2.220446049250313e-16,
        -1.0,
        0.0,
        0.0,
        1.0,
        2.220446049250313e-16,
        0.0,
        0.0,
        0.0,
        0.0,
        1.0
      ],
      "name": "Sketchfab_model"
    },
    {
      "children": [
        2
      ],
      "matrix": [
        1.0,
        0.0,
        0.0,
        0.0,
        0.0,
        -4.371139006309477e-08,
        0.999999999999999,
        0.0,
        0.0,
        -0.999999999999999,
        -4.371139006309477e-08,
        0.0,
        0.0,
        0.0,
        0.0,
        1.0
      ],
      "name": "Collada visual scene group"
    },
    {
      "children": [
        3
      ],
      "name": "g"
    },
    {
      "mesh": 0,
      "name": "defaultMaterial"
    }
  ],
  "samplers": [
    {
      "magFilter": 9729,
      "minFilter": 9987,
      "wrapS": 10497,
      "wrapT": 10497
    }
  ],
  "scene": 0,
  "scenes": [
    {
      "name": "Sketchfab_Scene",
      "nodes": [
        0
      ]
    }
  ],
  "textures": [
    {
      "sampler": 0,
      "source": 0
    },
    {
      "sampler": 0,
      "source": 1
    },
    {
      "sampler": 0,
      "source": 2
    }
  ]
}
