{
  "accessors": [
    {
      "bufferView": 1,
      "byteOffset": 0,
      "componentType": 5126,
      "normalized": false,
      "count": 614581,
      "type": "VEC3",
      "max": [
        0.8970019817352295,
        0.7253190279006958,
        0.9513109922409058
      ],
      "min": [
        -0.8930540084838867,
        -0.7279520034790039,
        -0.9517760276794434
      ]
    },
    {
      "bufferView": 2,
      "byteOffset": 0,
      "componentType": 5126,
      "normalized": false,
      "count": 614581,
      "type": "VEC2",
      "max": [
        0.9963819980621338,
        0.9999840259552002
      ],
      "min": [
        0.00008499999967170879,
        0.000009000301361083984
      ]
    },
    {
      "bufferView": 3,
      "byteOffset": 0,
      "componentType": 5126,
      "normalized": false,
      "count": 614581,
      "type": "VEC3",
      "max": [
        0.9999915361404419,
        0.9999998807907104,
        0.9999932050704956
      ],
      "min": [
        -0.999998927116394,
        -0.9999855756759644,
        -0.9999885559082031
      ]
    },
    {
      "bufferView": 0,
      "byteOffset": 0,
      "componentType": 5125,
      "normalized": false,
      "count": 3501180,
      "type": "SCALAR"
    }
  ],
  "asset": {
    "generator": "pygltflib@v1.16.1",
    "version": "2.0"
  },
  "bufferViews": [
    {
      "buffer": 0,
      "byteOffset": 0,
      "byteLength": 14004720,
      "target": 34963
    },
    {
      "buffer": 0,
      "byteOffset": 14004720,
      "byteLength": 7374972,
      "target": 34962
    },
    {
      "buffer": 0,
      "byteOffset": 21379692,
      "byteLength": 4916648,
      "target": 34962
    },
    {
      "buffer": 0,
      "byteOffset": 26296340,
      "byteLength": 7374972,
      "target": 34962
    },
    {
      "buffer": 0,
      "byteOffset": 33671312,
      "byteLength": 2487786
    },
    {
      "buffer": 0,
      "byteOffset": 36159100,
      "byteLength": 1987531
    },
    {
      "buffer": 0,
      "byteOffset": 38146632,
      "byteLength": 3308030
    }
  ],
  "buffers": [
    {
      "byteLength": 41454664,
      "uri": "Meshy_AI_poprosze_o_model_male_0101173315_texture.bin"
    }
  ],
  "images": [
    {
      "mimeType": "image/jpeg",
      "bufferView": 4
    },
    {
      "mimeType": "image/jpeg",
      "bufferView": 5
    },
    {
      "mimeType": "image/jpeg",
      "bufferView": 6
    }
  ],
  "materials": [
    {
      "pbrMetallicRoughness": {
        "baseColorFactor": [
          1,
          1,
          1,
          1
        ],
        "metallicFactor": 1,
        "roughnessFactor": 1,
        "baseColorTexture": {
          "index": 0,
          "texCoord": 0
        },
        "metallicRoughnessTexture": {
          "index": 1,
          "texCoord": 0
        }
      },
      "normalTexture": {
        "index": 2,
        "texCoord": 0
      },
      "emissiveFactor": [
        0,
        0,
        0
      ],
      "alphaMode": "OPAQUE",
      "doubleSided": true
    }
  ],
  "meshes": [
    {
      "primitives": [
        {
          "attributes": {
            "POSITION": 0,
            "NORMAL": 2,
            "TEXCOORD_0": 1
          },
          "indices": 3,
          "mode": 4,
          "material": 0
        }
      ]
    }
  ],
  "nodes": [
    {
      "mesh": 0,
      "matrix": [
        1,
        0,
        0,
        0,
        0,
        1,
        0,
        0,
        0,
        0,
        1,
        0,
        0,
        0,
        0,
        1
      ]
    }
  ],
  "samplers": [
    {
      "magFilter": 9729,
      "minFilter": 9987,
      "wrapS": 10497,
      "wrapT": 10497
    },
    {
      "magFilter": 9729,
      "minFilter": 9987,
      "wrapS": 10497,
      "wrapT": 10497
    },
    {
      "magFilter": 9729,
      "minFilter": 9987,
      "wrapS": 10497,
      "wrapT": 10497
    }
  ],
  "scene": 0,
  "scenes": [
    {
      "nodes": [
        0
      ]
    }
  ],
  "textures": [
    {
      "sampler": 0,
      "source": 0
    },
    {
      "sampler": 1,
      "source": 1
    },
    {
      "sampler": 2,
      "source": 2
    }
  ]
}