{
  "accessors": [
    {
      "bufferView": 1,
      "byteOffset": 0,
      "componentType": 5126,
      "normalized": false,
      "count": 471347,
      "type": "VEC3",
      "max": [
        0.9515330195426941,
        0.42625001072883606,
        0.7284299731254578
      ],
      "min": [
        -0.9513580203056335,
        -0.4248049855232239,
        -0.7297379970550537
      ]
    },
    {
      "bufferView": 2,
      "byteOffset": 0,
      "componentType": 5126,
      "normalized": false,
      "count": 471347,
      "type": "VEC2",
      "max": [
        0.9983310103416443,
        0.9999809861183167
      ],
      "min": [
        0.0001539999939268455,
        0.000003993511199951172
      ]
    },
    {
      "bufferView": 3,
      "byteOffset": 0,
      "componentType": 5126,
      "normalized": false,
      "count": 471347,
      "type": "VEC3",
      "max": [
        0.9999998807907104,
        0.9999974370002747,
        0.9999887943267822
      ],
      "min": [
        -0.9999713897705078,
        -0.9999982118606567,
        -0.9999841451644897
      ]
    },
    {
      "bufferView": 0,
      "byteOffset": 0,
      "componentType": 5125,
      "normalized": false,
      "count": 2656902,
      "type": "SCALAR"
    }
  ],
  "asset": {
    "generator": "pygltflib@v1.16.1",
    "version": "2.0"
  },
  "bufferViews": [
    {
      "buffer": 0,
      "byteOffset": 0,
      "byteLength": 10627608,
      "target": 34963
    },
    {
      "buffer": 0,
      "byteOffset": 10627608,
      "byteLength": 5656164,
      "target": 34962
    },
    {
      "buffer": 0,
      "byteOffset": 16283772,
      "byteLength": 3770776,
      "target": 34962
    },
    {
      "buffer": 0,
      "byteOffset": 20054548,
      "byteLength": 5656164,
      "target": 34962
    },
    {
      "buffer": 0,
      "byteOffset": 25710712,
      "byteLength": 2303577
    },
    {
      "buffer": 0,
      "byteOffset": 28014292,
      "byteLength": 461208
    },
    {
      "buffer": 0,
      "byteOffset": 28475500,
      "byteLength": 3329269
    }
  ],
  "buffers": [
    {
      "byteLength": 31804772,
      "uri": "Meshy_AI_wygeneruj_mi_meteory_0101175857_texture.bin"
    }
  ],
  "images": [
    {
      "mimeType": "image/jpeg",
      "bufferView": 4
    },
    {
      "mimeType": "image/jpeg",
      "bufferView": 5
    },
    {
      "mimeType": "image/jpeg",
      "bufferView": 6
    }
  ],
  "materials": [
    {
      "pbrMetallicRoughness": {
        "baseColorFactor": [
          1,
          1,
          1,
          1
        ],
        "metallicFactor": 1,
        "roughnessFactor": 1,
        "baseColorTexture": {
          "index": 0,
          "texCoord": 0
        },
        "metallicRoughnessTexture": {
          "index": 1,
          "texCoord": 0
        }
      },
      "normalTexture": {
        "index": 2,
        "texCoord": 0
      },
      "emissiveFactor": [
        0,
        0,
        0
      ],
      "alphaMode": "OPAQUE",
      "doubleSided": true
    }
  ],
  "meshes": [
    {
      "primitives": [
        {
          "attributes": {
            "POSITION": 0,
            "NORMAL": 2,
            "TEXCOORD_0": 1
          },
          "indices": 3,
          "mode": 4,
          "material": 0
        }
      ]
    }
  ],
  "nodes": [
    {
      "mesh": 0,
      "matrix": [
        1,
        0,
        0,
        0,
        0,
        1,
        0,
        0,
        0,
        0,
        1,
        0,
        0,
        0,
        0,
        1
      ]
    }
  ],
  "samplers": [
    {
      "magFilter": 9729,
      "minFilter": 9987,
      "wrapS": 10497,
      "wrapT": 10497
    },
    {
      "magFilter": 9729,
      "minFilter": 9987,
      "wrapS": 10497,
      "wrapT": 10497
    },
    {
      "magFilter": 9729,
      "minFilter": 9987,
      "wrapS": 10497,
      "wrapT": 10497
    }
  ],
  "scene": 0,
  "scenes": [
    {
      "nodes": [
        0
      ]
    }
  ],
  "textures": [
    {
      "sampler": 0,
      "source": 0
    },
    {
      "sampler": 1,
      "source": 1
    },
    {
      "sampler": 2,
      "source": 2
    }
  ]
}