{
  "accessors": [
    {
      "bufferView": 1,
      "byteOffset": 0,
      "componentType": 5126,
      "normalized": false,
      "count": 293673,
      "type": "VEC3",
      "max": [
        0.9517679810523987,
        0.4233959913253784,
        0.4610680043697357
      ],
      "min": [
        -0.9511129856109619,
        -0.42358100414276123,
        -0.4587010145187378
      ]
    },
    {
      "bufferView": 2,
      "byteOffset": 0,
      "componentType": 5126,
      "normalized": false,
      "count": 293673,
      "type": "VEC2",
      "max": [
        0.9994279742240906,
        0.9998779892921448
      ],
      "min": [
        0.00011600000289035961,
        0.00004601478576660156
      ]
    },
    {
      "bufferView": 3,
      "byteOffset": 0,
      "componentType": 5126,
      "normalized": false,
      "count": 293673,
      "type": "VEC3",
      "max": [
        0.9999861717224121,
        0.9999979138374329,
        0.9999991655349731
      ],
      "min": [
        -0.9998032450675964,
        -0.999997615814209,
        -0.9999991655349731
      ]
    },
    {
      "bufferView": 0,
      "byteOffset": 0,
      "componentType": 5125,
      "normalized": false,
      "count": 1642482,
      "type": "SCALAR"
    }
  ],
  "asset": {
    "generator": "pygltflib@v1.16.1",
    "version": "2.0"
  },
  "bufferViews": [
    {
      "buffer": 0,
      "byteOffset": 0,
      "byteLength": 6569928,
      "target": 34963
    },
    {
      "buffer": 0,
      "byteOffset": 6569928,
      "byteLength": 3524076,
      "target": 34962
    },
    {
      "buffer": 0,
      "byteOffset": 10094004,
      "byteLength": 2349384,
      "target": 34962
    },
    {
      "buffer": 0,
      "byteOffset": 12443388,
      "byteLength": 3524076,
      "target": 34962
    },
    {
      "buffer": 0,
      "byteOffset": 15967464,
      "byteLength": 2096768
    },
    {
      "buffer": 0,
      "byteOffset": 18064232,
      "byteLength": 938634
    },
    {
      "buffer": 0,
      "byteOffset": 19002868,
      "byteLength": 2956224
    }
  ],
  "buffers": [
    {
      "byteLength": 21959092,
      "uri": "Meshy_AI_wygeneruj_mi_meteory_0101175530_texture.bin"
    }
  ],
  "images": [
    {
      "mimeType": "image/jpeg",
      "bufferView": 4
    },
    {
      "mimeType": "image/jpeg",
      "bufferView": 5
    },
    {
      "mimeType": "image/jpeg",
      "bufferView": 6
    }
  ],
  "materials": [
    {
      "pbrMetallicRoughness": {
        "baseColorFactor": [
          1,
          1,
          1,
          1
        ],
        "metallicFactor": 1,
        "roughnessFactor": 1,
        "baseColorTexture": {
          "index": 0,
          "texCoord": 0
        },
        "metallicRoughnessTexture": {
          "index": 1,
          "texCoord": 0
        }
      },
      "normalTexture": {
        "index": 2,
        "texCoord": 0
      },
      "emissiveFactor": [
        0,
        0,
        0
      ],
      "alphaMode": "OPAQUE",
      "doubleSided": true
    }
  ],
  "meshes": [
    {
      "primitives": [
        {
          "attributes": {
            "POSITION": 0,
            "NORMAL": 2,
            "TEXCOORD_0": 1
          },
          "indices": 3,
          "mode": 4,
          "material": 0
        }
      ]
    }
  ],
  "nodes": [
    {
      "mesh": 0,
      "matrix": [
        1,
        0,
        0,
        0,
        0,
        1,
        0,
        0,
        0,
        0,
        1,
        0,
        0,
        0,
        0,
        1
      ]
    }
  ],
  "samplers": [
    {
      "magFilter": 9729,
      "minFilter": 9987,
      "wrapS": 10497,
      "wrapT": 10497
    },
    {
      "magFilter": 9729,
      "minFilter": 9987,
      "wrapS": 10497,
      "wrapT": 10497
    },
    {
      "magFilter": 9729,
      "minFilter": 9987,
      "wrapS": 10497,
      "wrapT": 10497
    }
  ],
  "scene": 0,
  "scenes": [
    {
      "nodes": [
        0
      ]
    }
  ],
  "textures": [
    {
      "sampler": 0,
      "source": 0
    },
    {
      "sampler": 1,
      "source": 1
    },
    {
      "sampler": 2,
      "source": 2
    }
  ]
}