{
  "asset": {
    "generator": "Khronos glTF Blender I/O v4.3.47",
    "version": "2.0"
  },
  "scene": 0,
  "scenes": [
    {
      "name": "Scene",
      "nodes": [
        0
      ]
    }
  ],
  "nodes": [
    {
      "mesh": 0,
      "name": "Mesh1.0"
    }
  ],
  "materials": [
    {
      "doubleSided": true,
      "name": "BakedMaterial",
      "normalTexture": {
        "index": 0
      },
      "pbrMetallicRoughness": {
        "baseColorTexture": {
          "index": 1
        },
        "metallicRoughnessTexture": {
          "index": 2
        }
      }
    }
  ],
  "meshes": [
    {
      "name": "Mesh1.0",
      "primitives": [
        {
          "attributes": {
            "POSITION": 0,
            "NORMAL": 1,
            "TEXCOORD_0": 2
          },
          "indices": 3,
          "material": 0
        }
      ]
    }
  ],
  "textures": [
    {
      "sampler": 0,
      "source": 0
    },
    {
      "sampler": 0,
      "source": 1
    },
    {
      "sampler": 0,
      "source": 2
    }
  ],
  "images": [
    {
      "bufferView": 4,
      "mimeType": "image/png",
      "name": "Baked_Normal"
    },
    {
      "bufferView": 5,
      "mimeType": "image/png",
      "name": "Baked_BaseColor"
    },
    {
      "bufferView": 6,
      "mimeType": "image/png",
      "name": "Baked_MetallicRoughness"
    }
  ],
  "accessors": [
    {
      "bufferView": 0,
      "componentType": 5126,
      "count": 2519,
      "max": [
        0.8998180031776428,
        0.7210859656333923,
        0.9636179804801941
      ],
      "min": [
        -0.8992959856987,
        -0.7325649857521057,
        -0.9552950263023376
      ],
      "type": "VEC3"
    },
    {
      "bufferView": 1,
      "componentType": 5126,
      "count": 2519,
      "type": "VEC3"
    },
    {
      "bufferView": 2,
      "componentType": 5126,
      "count": 2519,
      "type": "VEC2"
    },
    {
      "bufferView": 3,
      "componentType": 5123,
      "count": 9000,
      "type": "SCALAR"
    }
  ],
  "bufferViews": [
    {
      "buffer": 0,
      "byteLength": 30228,
      "byteOffset": 0,
      "target": 34962
    },
    {
      "buffer": 0,
      "byteLength": 30228,
      "byteOffset": 30228,
      "target": 34962
    },
    {
      "buffer": 0,
      "byteLength": 20152,
      "byteOffset": 60456,
      "target": 34962
    },
    {
      "buffer": 0,
      "byteLength": 18000,
      "byteOffset": 80608,
      "target": 34963
    },
    {
      "buffer": 0,
      "byteLength": 6534421,
      "byteOffset": 98608
    },
    {
      "buffer": 0,
      "byteLength": 5299521,
      "byteOffset": 6633032
    },
    {
      "buffer": 0,
      "byteLength": 3474974,
      "byteOffset": 11932556
    }
  ],
  "samplers": [
    {
      "magFilter": 9729,
      "minFilter": 9987
    }
  ],
  "buffers": [
    {
      "byteLength": 15407532,
      "uri": "Meshy_AI_poprosze_o_model_male_0101175554_texture.bin"
    }
  ]
}